<?xml version="1.0" standalone="no"?>
<!DOCTYPE svg PUBLIC "-//W3C//DTD SVG 20010904//EN"
 "http://www.w3.org/TR/2001/REC-SVG-20010904/DTD/svg10.dtd">
<svg version="1.0" xmlns="http://www.w3.org/2000/svg"
 width="270.000000pt" height="270.000000pt" viewBox="0 0 270.000000 270.000000"
 preserveAspectRatio="xMidYMid meet">
<metadata>
Created by potrace 1.11, written by Peter Selinger 2001-2013
</metadata>
<g transform="translate(0.000000,270.000000) scale(0.100000,-0.100000)"
fill="#000000" stroke="none">
<path d="M1097 2679 c-53 -12 -91 -33 -120 -69 -23 -26 -29 -29 -52 -20 -56
21 -139 6 -184 -34 -28 -25 -51 -75 -51 -111 0 -21 -4 -25 -27 -23 -93 6 -173
-124 -131 -210 14 -26 13 -29 -1 -29 -53 0 -67 -6 -101 -42 -65 -68 -61 -160
9 -224 l39 -35 -25 -24 c-51 -46 -69 -139 -38 -198 18 -35 61 -70 86 -70 21 0
23 -8 9 -44 -10 -28 3 -79 29 -110 19 -22 91 -57 103 -50 4 3 8 -6 8 -20 0
-43 18 -74 59 -102 33 -21 47 -25 76 -20 37 7 72 46 59 67 -3 6 -8 35 -10 63
-1 28 -4 69 -7 91 -2 22 0 48 5 58 5 10 5 24 0 33 -6 11 -1 24 20 44 15 16 28
35 28 44 0 12 5 14 24 6 14 -5 35 -7 47 -5 27 5 69 43 69 62 0 7 11 13 25 13
14 0 34 9 44 19 11 11 21 18 23 16 8 -8 67 -12 79 -5 8 5 22 1 37 -11 14 -10
34 -19 46 -19 14 0 26 -10 34 -28 15 -36 49 -52 96 -46 25 3 36 0 36 -9 0 -7
10 -24 23 -37 12 -14 23 -38 25 -55 4 -52 2 -109 -7 -140 -4 -17 -5 -39 -1
-50 4 -10 2 -32 -4 -48 -10 -25 -8 -30 14 -47 32 -25 77 -25 117 0 36 22 67
73 60 100 -4 14 3 20 28 24 18 4 50 22 71 40 37 32 39 36 40 96 1 62 1 63 35
77 45 18 71 55 77 109 6 55 -20 126 -56 154 -22 18 -24 23 -12 30 40 25 53 38
70 70 31 61 14 146 -38 193 -11 10 -39 21 -62 24 -33 5 -40 9 -34 22 18 39 15
116 -5 149 -28 44 -78 74 -118 69 -32 -3 -33 -2 -33 36 0 78 -64 138 -152 143
-28 1 -62 -2 -76 -7 -21 -8 -29 -4 -61 29 -53 54 -157 80 -244 61z"/>
<path d="M2090 1499 l-25 -19 24 -20 c23 -20 23 -21 6 -40 -18 -20 -40 -17
-32 4 3 6 -1 19 -7 28 -11 16 -14 15 -41 -2 l-28 -18 28 -27 29 -26 -24 -22
c-17 -16 -21 -18 -17 -5 3 9 0 24 -7 34 -13 17 -15 17 -40 1 -22 -15 -24 -20
-14 -37 7 -10 15 -17 19 -14 4 2 11 -2 17 -9 7 -8 3 -23 -13 -47 -18 -28 -72
-63 -261 -170 -131 -74 -244 -137 -252 -138 -7 -2 -37 19 -65 47 -60 59 -136
101 -184 101 -46 0 -103 -59 -146 -152 -52 -113 -63 -118 -222 -117 -307 1
-442 -91 -430 -295 9 -136 79 -280 195 -398 202 -205 384 -188 522 48 35 61
88 185 88 207 0 22 54 66 85 71 17 3 62 8 102 10 176 13 217 79 160 257 l-24
77 236 160 c190 128 245 161 276 163 30 3 40 0 40 -11 1 -8 6 -23 11 -34 11
-17 12 -18 37 -1 22 14 25 21 16 36 -5 10 -17 19 -26 19 -22 0 -5 17 22 22 14
2 20 -3 20 -14 0 -10 7 -24 15 -32 13 -13 18 -12 38 4 l24 19 -26 25 c-24 21
-24 24 -9 30 10 3 24 9 32 12 9 4 11 2 7 -5 -4 -6 -1 -20 7 -31 12 -18 15 -18
35 -4 28 19 28 42 0 53 l-22 8 23 12 c19 11 22 19 18 45 -11 66 -123 197 -142
166 -3 -5 -13 -10 -22 -10 -12 0 -13 3 -4 13 8 11 7 18 -7 30 -16 14 -19 14
-42 -4z m-1020 -771 c78 -40 112 -136 74 -211 -50 -96 -174 -121 -249 -50 -55
52 -70 123 -39 188 20 43 44 64 91 81 53 19 72 17 123 -8z"/>
</g>
</svg>
